<svg id="Ebene_1" data-name="Ebene 1" xmlns="http://www.w3.org/2000/svg" viewBox="0 0 3361.88976 788.0315"><defs><style>.cls-1{fill:#020201;}.cls-2{fill:#fff;fill-rule:evenodd;}</style></defs><title>superluminar_logo_cmyk_black</title><g id="logo_black"><g id="superluminar"><rect id="Rectangle" class="cls-1" width="3361.88976" height="788.0315"/><path class="cls-2" d="M417.34708,317.314q-12.60714-13.13393-34.66948-19.96348a148.517,148.517,0,0,0-44.12481-6.8296q-35.72022,0-62.51013,23.641-26.79018,23.64106-32.56831,59.89038a89.71621,89.71621,0,0,0-1.05057,13.65924q0,21.01428,11.03119,33.0973Q264.48621,432.892,284.4474,441.823q4.20235,2.10146,12.60707,5.25355,16.80955,7.355,24.95153,13.13386,8.14214,5.77893,8.14207,16.286a4.66319,4.66319,0,0,1-.52528,2.10143v2.10142a32.0352,32.0352,0,0,1-11.81915,19.96348,33.72963,33.72963,0,0,1-21.79976,7.88032,47.89591,47.89591,0,0,1-27.578-8.4057,95.96555,95.96555,0,0,1-22.32505-21.53952l-40.44772,43.60442a88.949,88.949,0,0,0,35.45743,31.78392,106.08471,106.08471,0,0,0,48.58981,11.29512q42.02382,0,75.1172-24.95433,33.09383-24.95443,39.39715-66.45733a115.3082,115.3082,0,0,0,1.05061-15.23524q0-23.11572-11.29385-36.51215T362.7164,399.79464q-3.67713-1.576-15.23357-6.82958-16.28425-6.8297-24.16359-12.08317t-7.87943-14.18455v-2.62677q1.57589-9.45648,9.98062-15.76063a29.25861,29.25861,0,0,1,17.86-6.30428,40.65434,40.65434,0,0,1,19.69858,4.99089,57.03606,57.03606,0,0,1,16.02152,12.87117Zm53.05486-18.3874h73.54133L521.88085,438.67087a138.1056,138.1056,0,0,0-2.62648,24.69163q0,17.86214,7.61681,28.89449,7.61678,11.03252,26.52738,11.03247,13.13248,0,22.58772-5.77892a46.13164,46.13164,0,0,0,15.23357-14.9726,85.07233,85.07233,0,0,0,9.19267-20.22613,180.09147,180.09147,0,0,0,5.51557-23.64094l22.06243-139.74425h73.54134L677.36824,450.754q-18.38541,114.52779-133.425,114.52722-100.33191,0-100.33143-86.15812a167.62413,167.62413,0,0,1,2.62648-28.3691Zm356.15021,0L822.875,322.56757a102.18342,102.18342,0,0,1,35.19484-23.64095,107.21659,107.21659,0,0,1,40.973-8.40568q46.22625,0,72.2281,32.3093,26.00226,32.30943,26.00218,79.06582a143.85708,143.85708,0,0,1-2.10123,24.69164,188.60264,188.60264,0,0,1-16.02152,51.74743,170.93776,170.93776,0,0,1-30.46706,44.65512,140.332,140.332,0,0,1-42.81161,30.99588,120.07924,120.07924,0,0,1-51.479,11.29512,85.00687,85.00687,0,0,1-38.0839-8.66835q-17.59743-8.66833-26.0021-23.9036h-1.05058L764.042,694.51841H689.97538l63.03543-395.59179Zm21.53706,201.21069a56.41478,56.41478,0,0,0,26.0021-6.30424,78.5657,78.5657,0,0,0,22.06246-16.81132,97.225,97.225,0,0,0,16.02144-23.37829,92.01947,92.01947,0,0,0,8.40476-26.005,76.58034,76.58034,0,0,0,1.05057-12.60851q0-24.69175-13.395-42.02835-13.395-17.33678-37.03325-17.3367a58.40816,58.40816,0,0,0-26.00218,6.04158,74.50544,74.50544,0,0,0-22.06239,16.54867,97.22623,97.22623,0,0,0-16.02152,23.37825,92.01953,92.01953,0,0,0-8.40468,26.00506,76.58,76.58,0,0,0-1.05057,12.60852q0,24.69176,13.395,42.291Q824.451,500.13741,848.08921,500.13731Zm408.15441-60.41575H1086.57331a118.54313,118.54313,0,0,0-1.5759,18.3874q0,22.065,9.98058,36.51215,9.98068,14.44733,31.51771,14.44724a53.14432,53.14432,0,0,0,30.99247-9.45639q13.65771-9.45642,24.16354-25.74237l66.18723,11.03247q-19.436,37.82566-54.10543,59.10237a141.90747,141.90747,0,0,1-75.64248,21.27682q-52.00452,0-80.89552-29.41983-28.89141-29.42-28.89124-78.27781a186.48917,186.48917,0,0,1,2.10122-27.31841q9.98058-61.46677,48.58982-100.60536,38.60938-39.13908,98.49286-39.1389,52.0044,0,77.481,29.15716,25.47686,29.15733,25.47678,77.48977a224.42079,224.42079,0,0,1-2.62648,33.62268Zm-160.21506-45.70581h98.23028q0-22.065-10.5059-37.0375t-29.9419-14.97259q-21.01185,0-36.24534,15.23528A84.72807,84.72807,0,0,0,1096.02856,394.01575Zm290.48838-95.08913-4.20245,26.79307h1.05065q28.366-35.19893,69.33888-35.19875a76.76111,76.76111,0,0,1,29.41657,6.30426l-19.43583,68.29606q-12.082-9.45642-28.89124-9.45639-18.38541,0-30.99255,7.09231a55.20208,55.20208,0,0,0-20.22374,19.4381,108.43126,108.43126,0,0,0-11.81914,26.79306,245.94,245.94,0,0,0-6.82894,31.784l-18.38533,116.1033h-73.54134l40.973-257.949Zm222.19984-187.5515-70.38953,445.50047h-73.54134l70.38953-445.50047Zm21.01181,187.5515h73.54134l-22.06246,139.74425a138.11668,138.11668,0,0,0-2.62648,24.69163q0,17.86214,7.61684,28.89449,7.61685,11.03252,26.52735,11.03247,13.13254,0,22.58779-5.77892a46.13117,46.13117,0,0,0,15.23354-14.9726,85.07546,85.07546,0,0,0,9.19266-20.22613,180.0723,180.0723,0,0,0,5.51554-23.64094l22.06247-139.74425h73.54133L1836.6949,450.754q-18.38541,114.52779-133.425,114.52722-100.33191,0-100.33143-86.15812a167.61589,167.61589,0,0,1,2.62648-28.3691Zm356.15014,0h-73.54134l-40.973,257.949h73.54134l19.96115-126.61039.52533-3.6775q2.10116-14.71,4.99037-26.79306a125.453,125.453,0,0,1,8.40476-23.9036,52.483,52.483,0,0,1,14.7082-19.17544q9.19282-7.355,23.3757-7.355,15.23346,0,21.2744,9.98174t6.04086,26.26772q0,12.08321-3.677,35.19872l-1.05065,5.25354-20.48649,130.81324h73.54134l19.96116-126.61039v-1.05073q2.62656-14.71,5.253-26.79306a115.57087,115.57087,0,0,1,8.40476-24.429,60.36006,60.36006,0,0,1,15.23353-20.48878q9.45541-8.14305,23.63829-8.143,14.70828,0,21.01181,9.719,6.30369,9.71909,6.3036,26.00506,0,11.5578-3.67713,32.572a22.14792,22.14792,0,0,0-.52532,3.67747l-21.537,135.54143h73.54134l25.73943-160.75842a239.3491,239.3491,0,0,0,2.62648-33.62268q0-33.62283-15.75886-52.79811-15.75909-19.17553-52.52953-19.17544-22.58794,0-44.65009,10.76976a103.283,103.283,0,0,0-36.77067,29.68253q-18.38542-40.45248-67.76306-40.45229-17.86024,0-36.50809,8.143a83.08345,83.08345,0,0,0-31.25513,23.37827h-1.0505Zm424.964,0h-73.54134l-40.97312,257.949h73.54133Zm-12.60721-151.82741q-18.38542,0-33.09354,12.87119-14.70828,12.87121-17.86,30.73322v3.67748a9.91515,9.91515,0,0,0-.52533,3.15212q0,15.76073,10.50591,26.26772t26.79009,10.50708q18.38541,0,33.09354-12.60849t17.33484-30.99591a9.91905,9.91905,0,0,1,.52517-3.15212V183.874q0-15.76073-10.24317-26.26772Q2414.51963,147.09916,2398.23552,147.09921Zm141.82972,151.82741H2466.5239l-40.973,257.949h73.54133l20.48649-127.66112a242.136,242.136,0,0,1,5.253-28.63179,125.75758,125.75758,0,0,1,8.93008-24.16629,51.637,51.637,0,0,1,16.28419-19.43814q10.50575-7.61765,26.26476-7.61762,17.86,0,25.21411,9.45639,7.35426,9.45642,7.3541,25.74233,0,9.98183-3.677,32.04665l-.52532,3.67746-21.53714,136.59213h73.54134l25.21411-157.6063a225.489,225.489,0,0,0,2.62647-32.572q0-35.72427-17.59726-55.95025-17.59767-20.22624-57.5199-20.22615a102.75094,102.75094,0,0,0-39.92247,7.88032,80.30632,80.30632,0,0,0-32.04305,24.16631h-1.05049Zm453.85525,0-40.973,257.949h-72.491l3.67713-23.64094H2883.083a97.94677,97.94677,0,0,1-34.14419,23.64094,103.37853,103.37853,0,0,1-40.44748,8.40566q-47.27706,0-73.27876-32.3093-26.0025-32.3094-26.00218-79.59115a169.5144,169.5144,0,0,1,18.38534-76.96441,178.745,178.745,0,0,1,30.46706-43.8671,141.30405,141.30405,0,0,1,42.02362-30.73322,115.48166,115.48166,0,0,1,50.42854-11.29513,88.91986,88.91986,0,0,1,38.34649,8.40568,72.02377,72.02377,0,0,1,28.89124,24.16629l3.67713-24.16629ZM2835.28125,500.13731a58.01233,58.01233,0,0,0,26.26476-6.30424,77.275,77.275,0,0,0,22.325-16.81132,97.22269,97.22269,0,0,0,16.02144-23.37829,92.02216,92.02216,0,0,0,8.40492-26.005,76.59743,76.59743,0,0,0,1.05034-12.60851q0-24.16641-13.65755-41.76565-13.65771-17.59947-37.29584-17.5994a58.40791,58.40791,0,0,0-26.00218,6.04158,74.50283,74.50283,0,0,0-22.06247,16.54867,97.22363,97.22363,0,0,0-16.02144,23.37825,92.02242,92.02242,0,0,0-8.40491,26.00506A76.596,76.596,0,0,0,2784.853,440.247q0,24.69176,13.395,42.291Q2811.64312,500.13741,2835.28125,500.13731Zm285.23527-201.21069h-73.54134l-40.973,257.949h73.54134l18.38534-116.1033a245.94259,245.94259,0,0,1,6.82877-31.784,108.43129,108.43129,0,0,1,11.81915-26.79306,55.20167,55.20167,0,0,1,20.22406-19.4381q12.60689-7.09236,30.99223-7.09231,16.80966,0,28.89124,9.45639l19.436-68.29606a76.76088,76.76088,0,0,0-29.4164-6.30426q-40.97361,0-69.339,35.19875h-1.05066Z"/></g></g></svg>